# xmcd
#
# Track frame offsets: 
#        150
#        16585
#        31952
#        49590
#        67745
#        88545
#        107523
#        124201
#        143101
#        162902
#        180801
#        199597
#        216712
#        241672
#        258023
#        274194
#        291344
#        314156
#        332619
#
# Disc length: 4694 seconds
#
# Revision: 0
# Processed by: cddbd v1.5.2PL0 Copyright (c) Steve Scherf et al.
# Submitted via: ExactAudioCopy v0.95b4
#
DISCID=05125413
DTITLE=Craig David - All The Way
DYEAR=2007
DGENRE=Blues
TTITLE0=All The Way
TTITLE1=Walking Away
TTITLE2=7 Days
TTITLE3=Rise and Fall (feat. Sting)
TTITLE4=Rendezvous
TTITLE5=You Don't Miss Your Water
TTITLE6=World Filled With Love
TTITLE7=Key To My Heart
TTITLE8=Whats Your Flava (feat. Twista)
TTITLE9=All The Way (H-Money edit)
TTITLE10=Static
TTITLE11=Booty Man
TTITLE12=Rewind
TTITLE13=Spanish
TTITLE14=Hidden Agenda
TTITLE15=2 Steps Back
TTITLE16=Eenie Meenie
TTITLE17=Come Together (live)
TTITLE18=All The Way (Kardinal Beats vocal)
EXTD=
EXTT0=
EXTT1=
EXTT2=
EXTT3=
EXTT4=
EXTT5=
EXTT6=
EXTT7=
EXTT8=
EXTT9=
EXTT10=
EXTT11=
EXTT12=
EXTT13=
EXTT14=
EXTT15=
EXTT16=
EXTT17=
EXTT18=
PLAYORDER=
